# xmcd
#
# Track frame offsets:
# 150
# 35490
# 44054
# 62941
# 77028
# 101577
# 133083
# 150489
#
# Disc length: 2304 seconds
#
#
# Revision: 0
# Processed by: cddbd v1.5.2PL0 Copyright (c) Steve Scherf et al.
# Submitted via: FreeRIP 2.943 
#
DISCID=6a08fe08
DTITLE=hey colossus - project-death
DYEAR=2007
DGENRE=Sludge
TTITLE0=do they ever return
TTITLE1=i am the chiswick strangler
TTITLE2=45 pounds
TTITLE3=frozed
TTITLE4=rope assassin
TTITLE5=the book of disquiet
TTITLE6=on the pleasure of hating
TTITLE7=grow still at last
EXTD=qq
EXTT0=
EXTT1=
EXTT2=
EXTT3=
EXTT4=
EXTT5=
EXTT6=
EXTT7=
PLAYORDER=
